<svg xmlns="http://www.w3.org/2000/svg" width="1200" height="630" viewBox="0 0 1200 630" role="img" aria-label="Precifique">
  <rect width="1200" height="630" fill="#0D0D0D"/>
  <circle cx="900" cy="200" r="180" fill="#00C896" opacity="0.25"/>
  <g transform="translate(80, 120) scale(2.5)">
    <path d="M24 2L42.784 12.5V35.5L24 46L5.216 35.5V12.5L24 2Z" fill="#00C896"/>
    <path d="M24 4.5L40.66 13.75V34.25L24 43.5L7.34 34.25V13.75L24 4.5Z" fill="#00A67D" fill-opacity="0.35"/>
    <path d="M17.5 19.5h10.5l4.5 4.5-4.5 4.5H17.5v-9Z" fill="#FFFFFF"/>
    <circle cx="20" cy="24" r="1.2" fill="#00A67D"/>
    <path d="M27 26.5L30 23.5L33 26.5" stroke="#0D0D0D" stroke-width="1.8" stroke-linecap="round" stroke-linejoin="round"/>
    <path d="M30 23.5V30" stroke="#0D0D0D" stroke-width="1.8" stroke-linecap="round"/>
  </g>
  <text x="230" y="175" fill="#00C896" font-family="system-ui,sans-serif" font-size="28" font-weight="600" letter-spacing="0.2em">PRECIFIQUE</text>
  <text x="80" y="280" fill="#FFFFFF" font-family="system-ui,sans-serif" font-size="56" font-weight="700">Precificação inteligente</text>
  <text x="80" y="340" fill="#94A3B8" font-family="system-ui,sans-serif" font-size="28">Custos, margem e preço justo para o seu negócio</text>
</svg>
