<svg xmlns="http://www.w3.org/2000/svg" width="640" height="400" viewBox="0 0 640 400" role="img" aria-label="Dashboard Precifique">
  <defs>
    <linearGradient id="bg" x1="0" y1="0" x2="1" y2="1">
      <stop offset="0%" stop-color="#F8FAFC"/>
      <stop offset="100%" stop-color="#F1F5F9"/>
    </linearGradient>
  </defs>
  <rect width="640" height="400" fill="url(#bg)"/>
  <!-- sidebar -->
  <rect x="0" y="0" width="88" height="400" fill="#0D0D0D"/>
  <rect x="16" y="20" width="56" height="8" rx="4" fill="#00C896" opacity="0.9"/>
  <rect x="16" y="36" width="40" height="6" rx="3" fill="#334155"/>
  <rect x="12" y="68" width="64" height="28" rx="8" fill="#00C896" opacity="0.18"/>
  <rect x="20" y="78" width="32" height="5" rx="2.5" fill="#00C896"/>
  <rect x="12" y="104" width="64" height="22" rx="6" fill="#1E293B"/>
  <rect x="20" y="112" width="40" height="4" rx="2" fill="#64748B"/>
  <rect x="12" y="132" width="64" height="22" rx="6" fill="#1E293B"/>
  <rect x="20" y="140" width="36" height="4" rx="2" fill="#64748B"/>
  <rect x="12" y="160" width="64" height="22" rx="6" fill="#1E293B"/>
  <rect x="20" y="168" width="44" height="4" rx="2" fill="#64748B"/>
  <!-- header -->
  <rect x="88" y="0" width="552" height="52" fill="#FFFFFF" opacity="0.92"/>
  <line x1="88" y1="52" x2="640" y2="52" stroke="#E2E8F0"/>
  <rect x="112" y="20" width="120" height="8" rx="4" fill="#CBD5E1"/>
  <rect x="520" y="16" width="88" height="24" rx="8" fill="#00C896"/>
  <rect x="536" y="24" width="56" height="6" rx="3" fill="#0D0D0D" opacity="0.85"/>
  <!-- hero stat -->
  <rect x="112" y="72" width="300" height="88" rx="14" fill="#FFFFFF" stroke="#E2E8F0"/>
  <rect x="128" y="88" width="80" height="6" rx="3" fill="#94A3B8"/>
  <text x="128" y="132" fill="#0D0D0D" font-family="system-ui,sans-serif" font-size="28" font-weight="700">R$ 4.280,00</text>
  <rect x="128" y="142" width="100" height="6" rx="3" fill="#00C896" opacity="0.35"/>
  <!-- stat cards -->
  <rect x="428" y="72" width="88" height="88" rx="12" fill="#FFFFFF" stroke="#E2E8F0"/>
  <rect x="444" y="88" width="48" height="5" rx="2.5" fill="#94A3B8"/>
  <text x="444" y="122" fill="#0D0D0D" font-family="system-ui,sans-serif" font-size="18" font-weight="700">12</text>
  <rect x="528" y="72" width="88" height="88" rx="12" fill="#FFFFFF" stroke="#E2E8F0"/>
  <rect x="544" y="88" width="40" height="5" rx="2.5" fill="#94A3B8"/>
  <text x="544" y="122" fill="#0D0D0D" font-family="system-ui,sans-serif" font-size="18" font-weight="700">38</text>
  <!-- goal bar -->
  <rect x="112" y="180" width="504" height="56" rx="12" fill="#FFFFFF" stroke="#E2E8F0"/>
  <rect x="128" y="196" width="100" height="6" rx="3" fill="#64748B"/>
  <rect x="560" y="196" width="40" height="6" rx="3" fill="#00A67D"/>
  <rect x="128" y="214" width="472" height="8" rx="4" fill="#F1F5F9"/>
  <rect x="128" y="214" width="320" height="8" rx="4" fill="#00C896"/>
  <!-- chart area -->
  <rect x="112" y="252" width="320" height="120" rx="12" fill="#FFFFFF" stroke="#E2E8F0"/>
  <polyline points="140,340 180,300 220,310 260,260 300,270 340,220 380,240" fill="none" stroke="#00C896" stroke-width="3" stroke-linecap="round" stroke-linejoin="round"/>
  <rect x="448" y="252" width="168" height="120" rx="12" fill="#0D0D0D"/>
  <rect x="464" y="272" width="80" height="6" rx="3" fill="#64748B"/>
  <rect x="464" y="290" width="120" height="5" rx="2.5" fill="#334155"/>
  <rect x="464" y="304" width="100" height="5" rx="2.5" fill="#334155"/>
  <circle cx="580" cy="320" r="18" fill="#00C896" opacity="0.25"/>
</svg>
