<svg xmlns="http://www.w3.org/2000/svg" width="640" height="400" viewBox="0 0 640 400" role="img" aria-label="Produtos Precifique">
  <rect width="640" height="400" fill="#F8FAFC"/>
  <rect x="0" y="0" width="88" height="400" fill="#0D0D0D"/>
  <rect x="16" y="20" width="56" height="8" rx="4" fill="#00C896" opacity="0.9"/>
  <rect x="12" y="68" width="64" height="28" rx="8" fill="#00C896" opacity="0.22"/>
  <rect x="20" y="78" width="36" height="5" rx="2.5" fill="#00C896"/>
  <rect x="88" y="0" width="552" height="52" fill="#FFFFFF"/>
  <line x1="88" y1="52" x2="640" y2="52" stroke="#E2E8F0"/>
  <rect x="112" y="18" width="96" height="10" rx="5" fill="#0D0D0D" opacity="0.85"/>
  <rect x="112" y="34" width="160" height="6" rx="3" fill="#94A3B8"/>
  <rect x="500" y="16" width="116" height="28" rx="10" fill="#00C896"/>
  <rect x="524" y="26" width="68" height="6" rx="3" fill="#0D0D0D" opacity="0.8"/>
  <!-- product card 1 -->
  <rect x="112" y="76" width="504" height="88" rx="14" fill="#FFFFFF" stroke="#E2E8F0"/>
  <rect x="128" y="96" width="56" height="56" rx="12" fill="#E2F9F3"/>
  <rect x="144" y="112" width="24" height="24" rx="6" fill="#00C896" opacity="0.35"/>
  <rect x="200" y="98" width="140" height="8" rx="4" fill="#0D0D0D" opacity="0.85"/>
  <rect x="200" y="114" width="100" height="5" rx="2.5" fill="#94A3B8"/>
  <rect x="200" y="128" width="72" height="5" rx="2.5" fill="#CBD5E1"/>
  <rect x="480" y="100" width="112" height="40" rx="10" fill="#F0FDF9" stroke="#99F6E0"/>
  <text x="492" y="118" fill="#64748B" font-family="system-ui,sans-serif" font-size="9">Preço sugerido</text>
  <text x="492" y="136" fill="#00A67D" font-family="system-ui,sans-serif" font-size="16" font-weight="700">R$ 18,90</text>
  <!-- product card 2 -->
  <rect x="112" y="176" width="504" height="88" rx="14" fill="#FFFFFF" stroke="#E2E8F0"/>
  <rect x="128" y="196" width="56" height="56" rx="12" fill="#EEF2FF"/>
  <rect x="144" y="212" width="24" height="24" rx="6" fill="#818CF8" opacity="0.35"/>
  <rect x="200" y="198" width="120" height="8" rx="4" fill="#0D0D0D" opacity="0.85"/>
  <rect x="200" y="214" width="88" height="5" rx="2.5" fill="#94A3B8"/>
  <rect x="200" y="228" width="60" height="5" rx="2.5" fill="#CBD5E1"/>
  <rect x="480" y="200" width="112" height="40" rx="10" fill="#F0FDF9" stroke="#99F6E0"/>
  <text x="492" y="218" fill="#64748B" font-family="system-ui,sans-serif" font-size="9">Preço sugerido</text>
  <text x="492" y="236" fill="#00A67D" font-family="system-ui,sans-serif" font-size="16" font-weight="700">R$ 42,50</text>
  <!-- product card 3 -->
  <rect x="112" y="276" width="504" height="88" rx="14" fill="#FFFFFF" stroke="#E2E8F0"/>
  <rect x="128" y="296" width="56" height="56" rx="12" fill="#FFF7ED"/>
  <rect x="144" y="312" width="24" height="24" rx="6" fill="#FB923C" opacity="0.35"/>
  <rect x="200" y="298" width="152" height="8" rx="4" fill="#0D0D0D" opacity="0.85"/>
  <rect x="200" y="314" width="96" height="5" rx="2.5" fill="#94A3B8"/>
  <rect x="200" y="328" width="80" height="5" rx="2.5" fill="#F59E0B" opacity="0.5"/>
  <rect x="480" y="300" width="112" height="40" rx="10" fill="#FFFBEB" stroke="#FDE68A"/>
  <text x="492" y="318" fill="#B45309" font-family="system-ui,sans-serif" font-size="9">Sem preço</text>
  <text x="492" y="336" fill="#D97706" font-family="system-ui,sans-serif" font-size="14" font-weight="600">Precificar ’</text>
</svg>
